<svg xmlns="http://www.w3.org/2000/svg" version="1.1" xmlns:xlink="http://www.w3.org/1999/xlink" xmlns:svgjs="http://svgjs.dev/svgjs" width="1000" height="1000" viewBox="0 0 1000 1000"><rect width="1000" height="1000" fill="#331e6d"></rect><g transform="matrix(0.7,0,0,0.7,150.61875409836063,146.08680161943317)"><svg viewBox="0 0 244 247" data-background-color="#331e6d" preserveAspectRatio="xMidYMid meet" height="1012" width="1000" xmlns="http://www.w3.org/2000/svg" xmlns:xlink="http://www.w3.org/1999/xlink"><defs></defs><g id="tight-bounds" transform="matrix(1,0,0,1,-0.21567999999999188,-0.09999999999999432)"><svg viewBox="0 0 244.43135999999998 247.2" height="247.2" width="244.43135999999998"><g><svg></svg></g><g><svg viewBox="0 0 244.43135999999998 247.2" height="247.2" width="244.43135999999998"><g transform="matrix(1,0,0,1,0,49.507233470569204)"><svg viewBox="0 0 244.43135999999998 148.18553305886158" height="148.18553305886158" width="244.43135999999998"><g><svg viewBox="0 0 244.43135999999998 148.18553305886158" height="148.18553305886158" width="244.43135999999998"><g><svg viewBox="0 0 244.43135999999998 148.18553305886158" height="148.18553305886158" width="244.43135999999998"><g transform="matrix(1,0,0,1,0,89.56607572594272)"><svg viewBox="0 0 244.43135999999998 58.61945733291886" height="58.61945733291886" width="244.43135999999998"><g><svg viewBox="0 0 244.43135999999998 58.61945733291886" height="58.61945733291886" width="244.43135999999998"><g><svg viewBox="0 0 244.43135999999998 58.61945733291886" height="58.61945733291886" width="244.43135999999998"><g transform="matrix(1,0,0,1,0,0)"><svg width="244.43135999999998" viewBox="2 -37.01 157.07 37.67" height="58.61945733291886" data-palette-color="#ffcf31"><path d="M2-30.3L2-37.01 16.21-37.01Q18.75-37.01 21.08-36.35 23.41-35.69 25.43-34.5 27.44-33.3 29.09-31.63 30.74-29.96 31.91-27.91 33.08-25.85 33.72-23.49 34.35-21.12 34.35-18.55L34.35-18.55Q34.35-15.99 33.72-13.62 33.08-11.25 31.91-9.19 30.74-7.13 29.09-5.43 27.44-3.74 25.43-2.53 23.41-1.32 21.08-0.66 18.75 0 16.21 0L16.21 0 2 0 2-6.69 4.96-6.69 4.96-30.3 2-30.3ZM16.16-30.3L13.06-30.3 13.06-6.69 16.16-6.69Q18.14-6.69 19.9-7.62 21.66-8.54 22.95-10.14 24.24-11.74 25-13.9 25.76-16.06 25.76-18.55L25.76-18.55Q25.76-21.02 25-23.17 24.24-25.32 22.95-26.9 21.66-28.49 19.9-29.39 18.14-30.3 16.16-30.3L16.16-30.3ZM62.99-11.06L44.36-11.06 44.43-10.3Q44.7-9.2 45.35-8.37 45.99-7.54 46.87-6.98 47.75-6.42 48.83-6.14 49.9-5.86 51-5.86L51-5.86Q52.1-5.86 53.09-5.99 54.07-6.13 55-6.36 55.93-6.59 56.81-6.9 57.69-7.2 58.59-7.54L58.59-7.54 61.28-2.54Q59.89-1.68 58.73-1.09 57.57-0.49 56.39-0.1 55.22 0.29 53.9 0.48 52.59 0.66 50.83 0.66L50.83 0.66Q47.53 0.66 44.97-0.43 42.4-1.51 40.66-3.37 38.91-5.22 38-7.71 37.08-10.21 37.08-12.99L37.08-12.99Q37.08-15.77 38.05-18.21 39.01-20.65 40.77-22.47 42.53-24.29 44.97-25.34 47.41-26.39 50.39-26.39L50.39-26.39Q53.37-26.39 55.67-25.4 57.98-24.41 59.57-22.67 61.15-20.92 62.01-18.57 62.86-16.21 62.94-13.5L62.94-13.5Q63.01-12.89 63.02-12.29 63.03-11.69 62.99-11.06L62.99-11.06ZM50.19-20.29L50.19-20.29Q48.83-20.29 47.86-19.96 46.9-19.63 46.24-19.06 45.58-18.48 45.19-17.75 44.8-17.02 44.58-16.21L44.58-16.21 55.15-16.21Q54.98-17.04 54.66-17.77 54.34-18.51 53.78-19.07 53.22-19.63 52.35-19.96 51.49-20.29 50.19-20.29ZM65.79-18.6L65.79-25.29 79-25.29 79-18.6 75.92-18.6 80.05-7.74 84.03-18.6 81.29-18.6 81.29-25.29 94.5-25.29 94.5-18.6 91.13-18.6 83.59 0.1 76.14 0.1 68.6-18.6 65.79-18.6ZM98.23-29.59L98.23-37.01 126.87-37.01 126.87-24.39 118.94-24.39 118.94-29.59 110.17-29.59 110.17-21.8 117.77-21.8 117.77-14.7 110.17-14.7 110.17-6.69 114.08-6.69 114.08 0 98.23 0 98.23-6.69 102.07-6.69 102.07-29.59 98.23-29.59ZM129.63-29.64L129.63-37.01 159.07-37.01 159.07-24.39 151.11-24.39 151.11-29.64 141.62-29.64 141.62-22.34 148.96-22.34 148.96-15.26 141.62-15.26 141.62-6.69 151.11-6.69 151.11-13.26 159.07-13.26 159.07 0 129.63 0 129.63-6.69 133.51-6.69 133.51-29.64 129.63-29.64Z" opacity="1" transform="matrix(1,0,0,1,0,0)" fill="#ffcf31" class="undefined-text-0" data-fill-palette-color="primary" id="text-0"></path></svg></g></svg></g></svg></g></svg></g><g transform="matrix(1,0,0,1,81.71162785646467,0)"><svg viewBox="0 0 81.00810428707064 81.01209003409387" height="81.01209003409387" width="81.00810428707064"><g><svg xmlns="http://www.w3.org/2000/svg" xmlns:xlink="http://www.w3.org/1999/xlink" version="1.1" x="0" y="0" viewBox="0.35833249999999595 0.3587183000000067 89.28326340000001 89.2876563" enable-background="new 0 0 90 90" xml:space="preserve" height="81.01209003409387" width="81.00810428707064" class="icon-icon-0" data-fill-palette-color="accent" id="icon-0"><polygon points="57.928,58.169 57.875,76.027 45.397,63.548 45.397,45.639 " fill="#ffcf31" data-fill-palette-color="accent"></polygon><polygon points="76.027,57.875 58.475,57.927 45.826,45.279 63.432,45.279 " fill="#ffcf31" data-fill-palette-color="accent"></polygon><polygon points="76.027,32.125 63.432,44.721 45.707,44.721 58.355,32.073 " fill="#ffcf31" data-fill-palette-color="accent"></polygon><polygon points="44.838,45.59 44.838,63.314 32.125,76.027 32.074,58.355 " fill="#ffcf31" data-fill-palette-color="accent"></polygon><polygon points="57.928,31.712 45.397,44.243 45.397,26.452 57.875,13.974 " fill="#ffcf31" data-fill-palette-color="accent"></polygon><polygon points="44.838,26.687 44.838,44.291 32.074,31.526 32.125,13.974 " fill="#ffcf31" data-fill-palette-color="accent"></polygon><polygon points="44.479,44.721 26.569,44.721 13.974,32.125 31.832,32.073 " fill="#ffcf31" data-fill-palette-color="accent"></polygon><polygon points="44.36,45.279 31.712,57.927 13.974,57.875 26.569,45.279 " fill="#ffcf31" data-fill-palette-color="accent"></polygon><rect x="58.48" y="58.48" width="18.049" height="18.049" fill="#ffcf31" data-fill-palette-color="accent"></rect><polygon points="76.527,13.474 76.527,31.516 58.914,31.516 58.912,31.518 58.484,31.516 58.484,13.474 " fill="#ffcf31" data-fill-palette-color="accent"></polygon><polygon points="31.518,30.971 31.516,31.516 13.474,31.516 13.474,13.474 31.516,13.474 31.516,30.968 " fill="#ffcf31" data-fill-palette-color="accent"></polygon><rect x="13.471" y="58.48" width="18.05" height="18.049" fill="#ffcf31" data-fill-palette-color="accent"></rect><rect x="67.864" y="35.981" transform="matrix(0.7071 -0.7071 0.7071 0.7071 -9.3022 67.5465)" width="18.042" height="18.042" fill="#ffcf31" data-fill-palette-color="accent"></rect><rect x="35.979" y="4.094" transform="matrix(0.7071 -0.7071 0.7071 0.7071 3.9068 35.6621)" width="18.042" height="18.042" fill="#ffcf31" data-fill-palette-color="accent"></rect><rect x="4.095" y="35.98" transform="matrix(0.7071 -0.7071 0.7071 0.7071 -27.9787 22.4536)" width="18.041" height="18.041" fill="#ffcf31" data-fill-palette-color="accent"></rect><rect x="35.98" y="67.865" transform="matrix(0.7071 -0.7071 0.7071 0.7071 -41.1877 54.3437)" width="18.04" height="18.041" fill="#ffcf31" data-fill-palette-color="accent"></rect></svg></g></svg></g><g></g></svg></g></svg></g></svg></g><path d="M0 43.507L0 1 244.431 1 244.431 43.507 241.164 43.507 241.164 4.268 3.268 4.268 3.268 43.507 0 43.507M0 203.693L0 246.2 244.431 246.2 244.431 203.693 241.164 203.693 241.164 242.932 3.268 242.932 3.268 203.693 0 203.693" fill="#ffcf31" stroke="transparent" data-fill-palette-color="primary"></path></svg></g></svg><rect width="244.43135999999998" height="247.2" fill="none" stroke="none" visibility="hidden"></rect></g></svg></g></svg>